<?xml version="1.0" standalone="no"?>
<!DOCTYPE svg PUBLIC "-//W3C//DTD SVG 20010904//EN"
 "http://www.w3.org/TR/2001/REC-SVG-20010904/DTD/svg10.dtd">
<svg version="1.0" xmlns="http://www.w3.org/2000/svg"
 width="512.000000pt" height="512.000000pt" viewBox="0 0 512.000000 512.000000"
 preserveAspectRatio="xMidYMid meet">

<g transform="translate(0.000000,512.000000) scale(0.100000,-0.100000)"
fill="#000000" stroke="none">
<path d="M445 5110 c-197 -26 -356 -163 -421 -360 -17 -51 -19 -116 -21 -960
-1 -774 0 -895 12 -835 63 334 189 596 388 801 204 212 453 339 772 395 212
36 532 30 765 -17 156 -31 420 -125 420 -149 0 -9 -147 -325 -155 -333 -1 -2
-40 13 -86 32 -252 103 -449 142 -679 133 -294 -12 -514 -102 -694 -285 -160
-163 -252 -349 -307 -618 -26 -132 -36 -417 -20 -577 46 -438 236 -771 531
-926 144 -76 318 -111 550 -111 219 0 362 20 631 90 l109 28 -2 -176 -3 -175
-85 -29 c-207 -70 -490 -104 -775 -95 -196 7 -319 25 -460 68 -480 147 -790
530 -896 1109 -17 93 -18 79 -16 -800 2 -895 2 -895 24 -960 56 -164 182 -286
348 -337 57 -17 151 -18 2185 -18 2034 0 2128 1 2185 18 166 51 291 172 348
337 l22 65 2 1815 c1 1248 -1 1807 -8 1790 -9 -22 -1037 -2894 -1076 -3008
l-15 -42 -201 2 -200 3 -533 1490 c-293 820 -546 1527 -563 1573 l-29 82 211
0 212 0 388 -1103 c430 -1222 411 -1166 472 -1402 35 -138 45 -164 50 -140 64
276 108 412 472 1450 195 556 369 1052 386 1102 l32 93 204 0 203 0 -5 283
c-3 230 -7 292 -22 337 -51 163 -173 287 -335 343 l-65 22 -2095 1 c-1152 1
-2122 -2 -2155 -6z"/>
</g>
</svg>
